<?xml version="1.0" encoding="UTF-8" standalone="no"?>
<svg
   width="24"
   height="24"
   viewBox="0 0 6.3499998 6.3499998"
   version="1.1"
   id="svg8"
   inkscape:version="1.2.1 (9c6d41e410, 2022-07-14)"
   sodipodi:docname="icon_visible.svgz"
   xmlns:inkscape="http://www.inkscape.org/namespaces/inkscape"
   xmlns:sodipodi="http://sodipodi.sourceforge.net/DTD/sodipodi-0.dtd"
   xmlns="http://www.w3.org/2000/svg"
   xmlns:svg="http://www.w3.org/2000/svg"
   xmlns:rdf="http://www.w3.org/1999/02/22-rdf-syntax-ns#"
   xmlns:cc="http://creativecommons.org/ns#"
   xmlns:dc="http://purl.org/dc/elements/1.1/">
  <defs
     id="defs2" />
  <sodipodi:namedview
     id="base"
     pagecolor="#ffffff"
     bordercolor="#666666"
     borderopacity="1.0"
     inkscape:pageopacity="0.0"
     inkscape:pageshadow="2"
     inkscape:zoom="31.678384"
     inkscape:cx="8.9177529"
     inkscape:cy="11.269514"
     inkscape:document-units="mm"
     inkscape:current-layer="layer1"
     inkscape:document-rotation="0"
     showgrid="true"
     units="px"
     inkscape:window-width="1708"
     inkscape:window-height="1082"
     inkscape:window-x="554"
     inkscape:window-y="156"
     inkscape:window-maximized="0"
     inkscape:pagecheckerboard="0"
     inkscape:showpageshadow="2"
     inkscape:deskcolor="#d1d1d1"
     showguides="false">
    <inkscape:grid
       type="xygrid"
       id="grid839" />
  </sodipodi:namedview>
  <metadata
     id="metadata5">
    <rdf:RDF>
      <cc:Work
         rdf:about="">
        <dc:format>image/svg+xml</dc:format>
        <dc:type
           rdf:resource="http://purl.org/dc/dcmitype/StillImage" />
      </cc:Work>
    </rdf:RDF>
  </metadata>
  <g
     inkscape:label="レイヤー 1"
     inkscape:groupmode="layer"
     id="layer1">
    <path
       style="color:#000000;fill:#000000;stroke-linejoin:round;-inkscape-stroke:none"
       d="M 3.1679688,1.6289062 C 2.0680205,1.6192943 1.2065084,2.3440211 0.63085937,3.0683594 a 0.19030753,0.19030753 0 0 0 0.001953,0.2382812 C 1.2192271,4.0343061 2.0755483,4.7378811 3.1835938,4.7382812 4.2897301,4.7386808 5.1713428,4.0534336 5.7148437,3.2988281 A 0.19030753,0.19030753 0 0 0 5.7050781,3.0625 C 5.1648745,2.4420697 4.2761931,1.6385906 3.1679688,1.6289062 Z m -0.00391,0.3808594 C 4.0211641,2.0172555 4.7696336,2.6361668 5.2832031,3.1933594 4.7874582,3.8205169 4.0695581,4.3577419 3.1835938,4.3574219 2.2992359,4.3571025 1.5948148,3.8106493 1.0566406,3.1855469 1.5868573,2.5620185 2.2960958,2.0021808 3.1640625,2.0097656 Z"
       id="path835" />
    <ellipse
       style="fill:#000000;fill-opacity:1;stroke:none;stroke-width:0.414323;stroke-dasharray:none;stroke-opacity:1"
       id="path3924"
       cx="3.1780012"
       cy="3.1780019"
       rx="0.99220234"
       ry="0.97882891" />
  </g>
</svg>
